<?xml version="1.0" standalone="no"?>
<!DOCTYPE svg PUBLIC "-//W3C//DTD SVG 20010904//EN"
 "http://www.w3.org/TR/2001/REC-SVG-20010904/DTD/svg10.dtd">
<svg version="1.0" xmlns="http://www.w3.org/2000/svg"
 width="700.000000pt" height="700.000000pt" viewBox="0 0 700.000000 700.000000"
 preserveAspectRatio="xMidYMid meet">
<metadata>
Created by potrace 1.11, written by Peter Selinger 2001-2013
</metadata>
<g transform="translate(0.000000,700.000000) scale(0.100000,-0.100000)"
fill="#000000" stroke="none">
<path d="M3275 6919 c-346 -24 -705 -103 -1020 -226 -297 -116 -658 -324 -906
-523 -137 -110 -423 -397 -533 -535 -406 -508 -654 -1108 -732 -1770 -22 -190
-22 -562 0 -749 55 -452 160 -799 363 -1198 152 -299 345 -567 588 -817 291
-299 568 -502 927 -681 395 -197 755 -301 1208 -351 148 -16 512 -16 660 0
453 50 791 148 1195 346 336 166 597 350 869 615 407 397 691 849 866 1380
230 697 233 1442 9 2137 -62 192 -111 308 -210 503 -178 350 -382 625 -676
910 -268 260 -523 440 -858 605 -359 177 -664 273 -1033 325 -259 37 -477 45
-717 29z m48 -1649 c90 -34 121 -67 153 -163 44 -134 100 -269 168 -404 112
-226 228 -522 256 -658 17 -80 85 -184 148 -223 88 -56 655 -343 667 -338 20
7 26 67 15 148 -24 173 56 460 189 681 82 137 148 283 176 396 29 115 26 145
-13 130 -13 -5 -30 -25 -38 -46 -29 -72 -65 -143 -73 -143 -5 0 -17 24 -28 52
-22 59 -34 65 -120 67 -29 1 -53 4 -53 9 0 4 21 39 46 77 36 56 44 76 40 99
-16 79 -19 136 -7 136 7 0 41 -8 75 -17 l63 -16 62 47 c34 27 64 46 66 44 3
-2 -4 -35 -15 -73 -20 -68 -20 -70 -1 -89 19 -18 20 -18 63 3 59 28 88 27 192
-10 l89 -31 266 4 c259 3 267 2 324 -20 61 -25 94 -65 82 -102 -7 -22 -103
-83 -165 -105 -24 -8 -97 -22 -164 -30 -214 -27 -277 -49 -355 -125 -68 -67
-82 -109 -92 -289 -18 -313 -47 -478 -133 -748 l-44 -142 19 -78 c15 -55 19
-94 14 -133 -16 -152 -164 -320 -280 -320 -20 0 -81 11 -136 25 -143 36 -236
52 -384 65 -71 6 -158 18 -192 26 -34 9 -100 22 -145 30 -143 26 -178 33 -187
38 -5 3 -26 8 -47 12 -22 3 -43 10 -49 15 -5 5 -17 9 -27 9 -10 0 -41 11 -69
25 -50 26 -50 26 -110 9 -64 -18 -162 -77 -304 -181 -27 -20 -120 -84 -205
-141 -201 -135 -191 -125 -155 -162 15 -16 49 -36 74 -45 110 -36 281 -183
394 -337 31 -42 84 -127 118 -190 34 -62 88 -152 120 -199 61 -89 196 -229
222 -229 8 0 17 12 20 26 3 19 -6 40 -38 84 -24 32 -51 72 -60 90 l-16 31 48
-6 c26 -4 56 -9 65 -11 13 -4 26 8 47 43 60 98 53 97 102 4 43 -82 46 -85 99
-104 96 -35 96 -35 38 -101 l-51 -57 10 -80 c5 -43 6 -79 2 -79 -4 0 -22 18
-39 40 -39 49 -64 64 -96 56 -20 -5 -24 -13 -24 -46 0 -63 -16 -90 -103 -175
-70 -68 -92 -98 -149 -205 -36 -69 -83 -161 -104 -205 -46 -100 -154 -215
-200 -215 -44 0 -56 13 -65 66 -13 85 6 183 61 316 82 198 98 295 65 404 -22
74 -66 119 -210 212 -71 47 -155 105 -186 128 -90 69 -238 210 -358 341 l-111
122 -87 26 c-77 24 -92 33 -143 83 -64 64 -93 128 -111 242 -15 97 -3 125 94
229 108 117 182 208 256 319 99 149 255 337 387 469 70 71 126 136 133 154 17
50 13 143 -18 429 -17 146 -33 300 -36 343 -7 76 -7 77 -35 77 -18 0 -48 -17
-93 -53 -176 -145 -379 -208 -731 -227 -204 -11 -243 -18 -373 -61 -105 -35
-124 -50 -99 -78 15 -17 21 -17 98 -4 44 8 92 13 105 11 l23 -3 -35 -52 c-19
-29 -35 -56 -35 -60 0 -4 16 -34 35 -66 19 -32 35 -60 35 -63 0 -2 -39 -4 -86
-4 l-86 0 -57 -50 c-32 -27 -63 -50 -69 -50 -6 0 -21 31 -32 69 l-21 69 -75
27 c-42 15 -72 31 -67 34 4 4 33 15 63 25 30 10 61 26 68 34 19 25 14 49 -12
56 -38 9 -84 70 -101 134 -8 31 -22 80 -31 109 -15 51 -114 213 -201 325 -53
69 -99 164 -113 234 -14 68 5 114 48 114 77 0 188 -89 340 -272 86 -104 152
-151 245 -174 65 -16 69 -16 131 4 35 12 117 53 182 93 210 127 410 210 688
285 108 29 109 29 160 88 104 119 246 153 399 96z"/>
</g>
</svg>
